<svg xmlns="http://www.w3.org/2000/svg" xmlns:xlink="http://www.w3.org/1999/xlink" width="1800" height="342.23"><rect width="1800" height="342.23" rx="5" ry="5" class="a"/><svg y="0%" x="0%"><circle cx="20" cy="20" r="6" fill="#ff5f58"/><circle cx="40" cy="20" r="6" fill="#ffbd2e"/><circle cx="60" cy="20" r="6" fill="#18c132"/></svg><svg height="282.23" viewBox="0 0 176 28.223" width="1760" x="15" xmlns="http://www.w3.org/2000/svg" xmlns:xlink="http://www.w3.org/1999/xlink" y="50"><style>@keyframes i{0%{transform:translateX(0)}.1%{transform:translateX(-352px)}5%{transform:translateX(-528px)}7.2%{transform:translateX(-704px)}8.5%{transform:translateX(-880px)}9.8%{transform:translateX(-1056px)}10.1%{transform:translateX(-1232px)}11.2%{transform:translateX(-1408px)}12.6%{transform:translateX(-1584px)}16.7%{transform:translateX(-1760px)}18.6%{transform:translateX(-1936px)}20.8%{transform:translateX(-2112px)}31.1%{transform:translateX(-2288px)}33.7%{transform:translateX(-2464px)}43.9%{transform:translateX(-2640px)}45.6%{transform:translateX(-2816px)}47.4%{transform:translateX(-2992px)}54%{transform:translateX(-3168px)}55.8%{transform:translateX(-3344px)}57.3%{transform:translateX(-3520px)}61.9%{transform:translateX(-3696px)}65.1%{transform:translateX(-3872px)}68.7%{transform:translateX(-4048px)}72.6%{transform:translateX(-4224px)}76%{transform:translateX(-4400px)}82%{transform:translateX(-4576px)}82.6%{transform:translateX(-4752px)}82.7%{transform:translateX(-5104px)}to{transform:translateX(-5280px)}}.a{fill:#282d35}.f,.k{fill:#b9c0cb;white-space:pre}.k{font-weight:700}</style><g font-family="Monaco,Consolas,Menlo,'Bitstream Vera Sans Mono','Powerline Symbols',monospace" font-size="1.67"><defs><symbol id="1"><text y="1.67" class="f">yama@Yamas-MacBook-Pro</text><text x="23.046" y="1.67" class="f">coding-challenges</text><text x="41.082" y="1.67" class="f">%</text></symbol><symbol id="2"><text y="1.67" class="f">yama@Yamas-MacBook-Pro</text><text x="23.046" y="1.67" class="f">coding-challenges</text><text x="41.082" y="1.67" class="f">%</text><text x="43.086" y="1.67" class="f">python</text></symbol><symbol id="3"><text y="1.67" class="f">yama@Yamas-MacBook-Pro</text><text x="23.046" y="1.67" class="f">coding-challenges</text><text x="41.082" y="1.67" class="f">%</text><text x="43.086" y="1.67" class="f">python</text><text x="50.1" y="1.67" class="f">wc_tool/ccwc.py</text><text x="66.132" y="1.67" class="f">wc_tool/test.txt</text></symbol><symbol id="4"><text y="1.67" class="f">Line</text><text x="5.01" y="1.67" class="f">count:</text><text x="12.024" y="1.67" class="f">7145</text></symbol><symbol id="5"><text y="1.67" class="f">Word</text><text x="5.01" y="1.67" class="f">count:</text><text x="12.024" y="1.67" class="f">58164</text></symbol><symbol id="6"><text y="1.67" class="f">Byte</text><text x="5.01" y="1.67" class="f">count:</text><text x="12.024" y="1.67" class="f">342190</text></symbol><symbol id="7"><text y="1.67" class="f">Char</text><text x="5.01" y="1.67" class="f">count:</text><text x="12.024" y="1.67" class="f">339292</text></symbol><symbol id="a"><path fill="transparent" d="M0 0h176v13H0z"/></symbol><symbol id="b"><path fill="#6f7683" d="M0 0h1.102v2.171H0z"/></symbol></defs><path class="a" d="M0 0h176v28.223H0z"/><g style="animation-duration:14.957187s;animation-iteration-count:infinite;animation-name:i;animation-timing-function:steps(1,end)"><svg width="5456"><svg><use xlink:href="#a"/><use xlink:href="#b" x="-.004"/></svg><svg x="176"><use xlink:href="#a"/><use xlink:href="#b" x="-.004"/></svg><svg x="352"><use xlink:href="#a"/><use xlink:href="#b" x="42.996"/><use xlink:href="#1"/></svg><svg x="528"><use xlink:href="#a"/><use xlink:href="#b" x="43.996"/><text y="1.67" class="f">yama@Yamas-MacBook-Pro</text><text x="23.046" y="1.67" class="f">coding-challenges</text><text x="41.082" y="1.67" class="f">%</text><text x="43.086" y="1.67" class="f">p</text></svg><svg x="704"><use xlink:href="#a"/><use xlink:href="#b" x="44.996"/><text y="1.67" class="f">yama@Yamas-MacBook-Pro</text><text x="23.046" y="1.67" class="f">coding-challenges</text><text x="41.082" y="1.67" class="f">%</text><text x="43.086" y="1.67" class="f">py</text></svg><svg x="880"><use xlink:href="#a"/><use xlink:href="#b" x="45.996"/><text y="1.67" class="f">yama@Yamas-MacBook-Pro</text><text x="23.046" y="1.67" class="f">coding-challenges</text><text x="41.082" y="1.67" class="f">%</text><text x="43.086" y="1.67" class="f">pyt</text></svg><svg x="1056"><use xlink:href="#a"/><use xlink:href="#b" x="46.996"/><text y="1.67" class="f">yama@Yamas-MacBook-Pro</text><text x="23.046" y="1.67" class="f">coding-challenges</text><text x="41.082" y="1.67" class="f">%</text><text x="43.086" y="1.67" class="f">pyth</text></svg><svg x="1232"><use xlink:href="#a"/><use xlink:href="#b" x="47.996"/><text y="1.67" class="f">yama@Yamas-MacBook-Pro</text><text x="23.046" y="1.67" class="f">coding-challenges</text><text x="41.082" y="1.67" class="f">%</text><text x="43.086" y="1.67" class="f">pytho</text></svg><svg x="1408"><use xlink:href="#a"/><use xlink:href="#b" x="48.996"/><use xlink:href="#2"/></svg><svg x="1584"><use xlink:href="#a"/><use xlink:href="#b" x="49.996"/><use xlink:href="#2"/></svg><svg x="1760"><use xlink:href="#a"/><use xlink:href="#b" x="50.996"/><text y="1.67" class="f">yama@Yamas-MacBook-Pro</text><text x="23.046" y="1.67" class="f">coding-challenges</text><text x="41.082" y="1.67" class="f">%</text><text x="43.086" y="1.67" class="f">python</text><text x="50.1" y="1.67" class="f">w</text></svg><svg x="1936"><use xlink:href="#a"/><use xlink:href="#b" x="51.996"/><text y="1.67" class="f">yama@Yamas-MacBook-Pro</text><text x="23.046" y="1.67" class="f">coding-challenges</text><text x="41.082" y="1.67" class="f">%</text><text x="43.086" y="1.67" class="f">python</text><text x="50.1" y="1.67" class="f">wc</text></svg><svg x="2112"><use xlink:href="#a"/><use xlink:href="#b" x="57.996"/><text y="1.67" class="f">yama@Yamas-MacBook-Pro</text><text x="23.046" y="1.67" class="f">coding-challenges</text><text x="41.082" y="1.67" class="f">%</text><text x="43.086" y="1.67" class="f">python</text><text x="50.1" y="1.67" class="f">wc_tool</text><text x="57.114" y="1.67" class="k">/</text></svg><svg x="2288"><use xlink:href="#a"/><use xlink:href="#b" x="58.996"/><text y="1.67" class="f">yama@Yamas-MacBook-Pro</text><text x="23.046" y="1.67" class="f">coding-challenges</text><text x="41.082" y="1.67" class="f">%</text><text x="43.086" y="1.67" class="f">python</text><text x="50.1" y="1.67" class="f">wc_tool/c</text></svg><svg x="2464"><use xlink:href="#a"/><use xlink:href="#b" x="65.996"/><text y="1.67" class="f">yama@Yamas-MacBook-Pro</text><text x="23.046" y="1.67" class="f">coding-challenges</text><text x="41.082" y="1.67" class="f">%</text><text x="43.086" y="1.67" class="f">python</text><text x="50.1" y="1.67" class="f">wc_tool/ccwc.py</text></svg><svg x="2640"><use xlink:href="#a"/><use xlink:href="#b" x="66.996"/><text y="1.67" class="f">yama@Yamas-MacBook-Pro</text><text x="23.046" y="1.67" class="f">coding-challenges</text><text x="41.082" y="1.67" class="f">%</text><text x="43.086" y="1.67" class="f">python</text><text x="50.1" y="1.67" class="f">wc_tool/ccwc.py</text><text x="66.132" y="1.67" class="f">w</text></svg><svg x="2816"><use xlink:href="#a"/><use xlink:href="#b" x="67.996"/><text y="1.67" class="f">yama@Yamas-MacBook-Pro</text><text x="23.046" y="1.67" class="f">coding-challenges</text><text x="41.082" y="1.67" class="f">%</text><text x="43.086" y="1.67" class="f">python</text><text x="50.1" y="1.67" class="f">wc_tool/ccwc.py</text><text x="66.132" y="1.67" class="f">wc</text></svg><svg x="2992"><use xlink:href="#a"/><use xlink:href="#b" x="73.996"/><text y="1.67" class="f">yama@Yamas-MacBook-Pro</text><text x="23.046" y="1.67" class="f">coding-challenges</text><text x="41.082" y="1.67" class="f">%</text><text x="43.086" y="1.67" class="f">python</text><text x="50.1" y="1.67" class="f">wc_tool/ccwc.py</text><text x="66.132" y="1.67" class="f">wc_tool</text><text x="73.146" y="1.67" class="k">/</text></svg><svg x="3168"><use xlink:href="#a"/><use xlink:href="#b" x="74.996"/><text y="1.67" class="f">yama@Yamas-MacBook-Pro</text><text x="23.046" y="1.67" class="f">coding-challenges</text><text x="41.082" y="1.67" class="f">%</text><text x="43.086" y="1.67" class="f">python</text><text x="50.1" y="1.67" class="f">wc_tool/ccwc.py</text><text x="66.132" y="1.67" class="f">wc_tool/t</text></svg><svg x="3344"><use xlink:href="#a"/><use xlink:href="#b" x="75.996"/><text y="1.67" class="f">yama@Yamas-MacBook-Pro</text><text x="23.046" y="1.67" class="f">coding-challenges</text><text x="41.082" y="1.67" class="f">%</text><text x="43.086" y="1.67" class="f">python</text><text x="50.1" y="1.67" class="f">wc_tool/ccwc.py</text><text x="66.132" y="1.67" class="f">wc_tool/te</text></svg><svg x="3520"><use xlink:href="#a"/><use xlink:href="#b" x="76.996"/><text y="1.67" class="f">yama@Yamas-MacBook-Pro</text><text x="23.046" y="1.67" class="f">coding-challenges</text><text x="41.082" y="1.67" class="f">%</text><text x="43.086" y="1.67" class="f">python</text><text x="50.1" y="1.67" class="f">wc_tool/ccwc.py</text><text x="66.132" y="1.67" class="f">wc_tool/tes</text></svg><svg x="3696"><use xlink:href="#a"/><use xlink:href="#b" x="77.996"/><text y="1.67" class="f">yama@Yamas-MacBook-Pro</text><text x="23.046" y="1.67" class="f">coding-challenges</text><text x="41.082" y="1.67" class="f">%</text><text x="43.086" y="1.67" class="f">python</text><text x="50.1" y="1.67" class="f">wc_tool/ccwc.py</text><text x="66.132" y="1.67" class="f">wc_tool/test</text></svg><svg x="3872"><use xlink:href="#a"/><use xlink:href="#b" x="78.996"/><text y="1.67" class="f">yama@Yamas-MacBook-Pro</text><text x="23.046" y="1.67" class="f">coding-challenges</text><text x="41.082" y="1.67" class="f">%</text><text x="43.086" y="1.67" class="f">python</text><text x="50.1" y="1.67" class="f">wc_tool/ccwc.py</text><text x="66.132" y="1.67" class="f">wc_tool/test.</text></svg><svg x="4048"><use xlink:href="#a"/><use xlink:href="#b" x="79.996"/><text y="1.67" class="f">yama@Yamas-MacBook-Pro</text><text x="23.046" y="1.67" class="f">coding-challenges</text><text x="41.082" y="1.67" class="f">%</text><text x="43.086" y="1.67" class="f">python</text><text x="50.1" y="1.67" class="f">wc_tool/ccwc.py</text><text x="66.132" y="1.67" class="f">wc_tool/test.t</text></svg><svg x="4224"><use xlink:href="#a"/><use xlink:href="#b" x="80.996"/><text y="1.67" class="f">yama@Yamas-MacBook-Pro</text><text x="23.046" y="1.67" class="f">coding-challenges</text><text x="41.082" y="1.67" class="f">%</text><text x="43.086" y="1.67" class="f">python</text><text x="50.1" y="1.67" class="f">wc_tool/ccwc.py</text><text x="66.132" y="1.67" class="f">wc_tool/test.tx</text></svg><svg x="4400"><use xlink:href="#a"/><use xlink:href="#b" x="81.996"/><use xlink:href="#3"/></svg><svg x="4576"><use xlink:href="#a"/><use xlink:href="#b" x="-.004" y="2.146"/><use xlink:href="#3"/></svg><svg x="4752"><use xlink:href="#a"/><use xlink:href="#b" x="-.004" y="10.83"/><use xlink:href="#3"/><use xlink:href="#4" y="2.171"/><use xlink:href="#5" y="4.342"/><use xlink:href="#6" y="6.513"/><use xlink:href="#7" y="8.684"/></svg><svg x="4928"><use xlink:href="#a"/><use xlink:href="#b" x="-.004" y="10.83"/><use xlink:href="#3"/><use xlink:href="#4" y="2.171"/><use xlink:href="#5" y="4.342"/><use xlink:href="#6" y="6.513"/><use xlink:href="#7" y="8.684"/></svg><svg x="5104"><use xlink:href="#a"/><use xlink:href="#b" x="42.996" y="10.83"/><use xlink:href="#3"/><use xlink:href="#4" y="2.171"/><use xlink:href="#5" y="4.342"/><use xlink:href="#6" y="6.513"/><use xlink:href="#7" y="8.684"/><use xlink:href="#1" y="10.855"/></svg><svg x="5280"><use xlink:href="#a"/><use xlink:href="#b" x="-.004" y="13.001"/><use xlink:href="#3"/><use xlink:href="#4" y="2.171"/><use xlink:href="#5" y="4.342"/><use xlink:href="#6" y="6.513"/><use xlink:href="#7" y="8.684"/><use xlink:href="#1" y="10.855"/></svg></svg></g></g></svg></svg>